<svg width="83" height="96" viewBox="0 0 83 96" fill="none" xmlns="http://www.w3.org/2000/svg">
<path fill-rule="evenodd" clip-rule="evenodd" d="M9.58669 20.2579C20.268 20.5575 27.9971 14.828 33.6087 4.77286C34.3636 3.32994 35.5 2.12189 36.8941 1.28029C38.2882 0.438702 39.8866 -0.00413744 41.515 2.91326e-05C43.1434 0.00419571 44.7395 0.455207 46.1293 1.30392C47.5191 2.15264 48.6493 3.36649 49.3967 4.81325C55.0084 14.8381 62.7307 20.5541 73.402 20.2512C73.6309 20.2343 73.8631 20.2242 74.0988 20.2242C75.6972 20.2247 77.266 20.656 78.6399 21.4729C80.0139 22.2898 81.1421 23.4621 81.906 24.8662C82.6698 26.2703 83.041 27.8544 82.9804 29.4517C82.9198 31.049 82.4297 32.6004 81.5617 33.9426C80.6937 35.2848 79.4798 36.3682 78.0479 37.0787C76.6161 37.7891 75.0191 38.1004 73.4253 37.9798C71.8314 37.8591 70.2995 37.311 68.9909 36.393C67.6823 35.4751 66.6454 34.2214 65.9893 32.7638C61.4919 23.5064 51.5916 17.952 41.5431 17.7769H41.4421C31.3937 17.9385 21.49 23.4997 16.996 32.7638C16.3393 34.221 15.3019 35.4743 13.993 36.3917C12.6842 37.309 11.1521 37.8566 9.5583 37.9766C7.96445 38.0967 6.36771 37.7849 4.93615 37.0739C3.50459 36.363 2.29117 35.2793 1.4236 33.9369C0.556036 32.5945 0.0664232 31.043 0.00629425 29.4458C-0.0538347 27.8485 0.317756 26.2646 1.08194 24.8608C1.84612 23.4569 2.97463 22.2851 4.34868 21.4685C5.72274 20.652 7.29152 20.221 8.88988 20.2209C8.88988 20.2209 9.35442 20.2411 9.58669 20.2579ZM48.0704 81.545C43.5393 75.3073 43.1623 61.4852 51.5175 50.7298C53.0372 48.8394 53.9915 46.5579 54.2701 44.1484C54.5488 41.739 54.1405 39.2998 53.0925 37.1125C52.0444 34.9251 50.3992 33.0786 48.3467 31.7862C46.2942 30.4937 43.9181 29.8079 41.4926 29.8079C39.0671 29.8079 36.691 30.4937 34.6386 31.7862C32.5861 33.0786 30.9409 34.9251 29.8928 37.1125C28.8447 39.2998 28.4365 41.739 28.7151 44.1484C28.9938 46.5579 29.948 48.8394 31.4677 50.7298V50.7298C39.8229 61.502 39.4459 75.3039 34.9149 81.545C34.72 81.7645 34.538 81.9949 34.3695 82.2351V82.2351C33.4455 83.5412 32.8984 85.0761 32.788 86.6721C32.6775 88.2682 33.008 89.8638 33.7433 91.2847C34.4785 92.7056 35.5903 93.8969 36.957 94.7285C38.3237 95.5601 39.8928 96 41.4926 96C43.0925 96 44.6615 95.5601 46.0282 94.7285C47.395 93.8969 48.5067 92.7056 49.242 91.2847C49.9773 89.8638 50.3078 88.2682 50.1973 86.6721C50.0869 85.0761 49.5397 83.5412 48.6158 82.2351V82.2351C48.4473 81.9949 48.2652 81.7645 48.0704 81.545ZM41.4926 34.3762C39.7741 34.3756 38.0939 34.8846 36.6647 35.8389C35.2354 36.7932 34.1213 38.1499 33.4631 39.7374C32.805 41.325 32.6325 43.072 32.9674 44.7577C33.3022 46.4433 34.1294 47.9917 35.3444 49.2072C36.5594 50.4226 38.1075 51.2504 39.793 51.586C41.4785 51.9215 43.2256 51.7496 44.8134 51.0921C46.4012 50.4346 47.7584 49.321 48.7132 47.8921C49.6681 46.4632 50.1777 44.7833 50.1777 43.0647C50.1777 40.761 49.2628 38.5515 47.6341 36.9222C46.0055 35.2929 43.7964 34.3771 41.4926 34.3762Z" fill="white"/>
<path fill-rule="evenodd" clip-rule="evenodd" d="M41.4926 49.7973C42.8242 49.7973 44.1259 49.4024 45.2331 48.6626C46.3403 47.9228 47.2032 46.8714 47.7128 45.6411C48.2224 44.4109 48.3557 43.0572 48.0959 41.7512C47.8361 40.4452 47.1949 39.2455 46.2533 38.304C45.3118 37.3624 44.1121 36.7212 42.8061 36.4614C41.5001 36.2016 40.1464 36.3349 38.9162 36.8445C37.6859 37.3541 36.6345 38.217 35.8947 39.3242C35.1549 40.4314 34.76 41.7331 34.76 43.0647C34.76 44.8503 35.4693 46.5627 36.7319 47.8254C37.9946 49.088 39.707 49.7973 41.4926 49.7973Z" fill="#F05623"/>
</svg>
